<mxfile host="app.diagrams.net" modified="2023-05-15T21:01:24.663Z" agent="Mozilla/5.0 (Windows NT 10.0; Win64; x64) AppleWebKit/537.36 (KHTML, like Gecko) Chrome/113.0.0.0 Safari/537.36" etag="IwWjjAkxYYoMLITYVwOI" version="21.3.0" type="device">
  <diagram id="R2lEEEUBdFMjLlhIrx00" name="Page-1">
    <mxGraphModel dx="2284" dy="1807" grid="1" gridSize="10" guides="1" tooltips="1" connect="1" arrows="1" fold="1" page="1" pageScale="1" pageWidth="850" pageHeight="1100" math="0" shadow="0" extFonts="Permanent Marker^https://fonts.googleapis.com/css?family=Permanent+Marker">
      <root>
        <mxCell id="0" />
        <mxCell id="1" parent="0" />
        <mxCell id="V1msDHGJHPTng66Zl8Yn-1" value="Cliente" style="swimlane;fontStyle=0;childLayout=stackLayout;horizontal=1;startSize=26;horizontalStack=0;resizeParent=1;resizeParentMax=0;resizeLast=0;collapsible=1;marginBottom=0;align=center;fontSize=14;" parent="1" vertex="1">
          <mxGeometry x="630" y="160" width="160" height="240" as="geometry" />
        </mxCell>
        <mxCell id="V1msDHGJHPTng66Zl8Yn-2" value="&lt;u&gt;ID_cliente(PK)&lt;span style=&quot;white-space: pre;&quot;&gt; &lt;/span&gt;&lt;/u&gt;" style="text;strokeColor=none;fillColor=none;spacingLeft=4;spacingRight=4;overflow=hidden;rotatable=0;points=[[0,0.5],[1,0.5]];portConstraint=eastwest;fontSize=12;whiteSpace=wrap;html=1;" parent="V1msDHGJHPTng66Zl8Yn-1" vertex="1">
          <mxGeometry y="26" width="160" height="30" as="geometry" />
        </mxCell>
        <mxCell id="V1msDHGJHPTng66Zl8Yn-3" value="Apellido&amp;nbsp;" style="text;strokeColor=none;fillColor=none;spacingLeft=4;spacingRight=4;overflow=hidden;rotatable=0;points=[[0,0.5],[1,0.5]];portConstraint=eastwest;fontSize=12;whiteSpace=wrap;html=1;" parent="V1msDHGJHPTng66Zl8Yn-1" vertex="1">
          <mxGeometry y="56" width="160" height="30" as="geometry" />
        </mxCell>
        <mxCell id="V1msDHGJHPTng66Zl8Yn-4" value="Nombre&lt;br&gt;&lt;br&gt;Apellido&lt;br&gt;&lt;br&gt;Telefono&lt;br&gt;&lt;br&gt;DNI&lt;br&gt;&lt;br&gt;Email&lt;br&gt;" style="text;strokeColor=none;fillColor=none;spacingLeft=4;spacingRight=4;overflow=hidden;rotatable=0;points=[[0,0.5],[1,0.5]];portConstraint=eastwest;fontSize=12;whiteSpace=wrap;html=1;" parent="V1msDHGJHPTng66Zl8Yn-1" vertex="1">
          <mxGeometry y="86" width="160" height="154" as="geometry" />
        </mxCell>
        <mxCell id="V1msDHGJHPTng66Zl8Yn-6" value="Viaje" style="swimlane;fontStyle=0;childLayout=stackLayout;horizontal=1;startSize=26;horizontalStack=0;resizeParent=1;resizeParentMax=0;resizeLast=0;collapsible=1;marginBottom=0;align=center;fontSize=14;" parent="1" vertex="1">
          <mxGeometry x="250" y="70" width="160" height="300" as="geometry" />
        </mxCell>
        <mxCell id="V1msDHGJHPTng66Zl8Yn-7" value="&lt;u&gt;ID_Viaje(PK)&lt;br&gt;ID_Cliente(FK)&lt;br&gt;&lt;/u&gt;" style="text;strokeColor=none;fillColor=none;spacingLeft=4;spacingRight=4;overflow=hidden;rotatable=0;points=[[0,0.5],[1,0.5]];portConstraint=eastwest;fontSize=12;whiteSpace=wrap;html=1;" parent="V1msDHGJHPTng66Zl8Yn-6" vertex="1">
          <mxGeometry y="26" width="160" height="30" as="geometry" />
        </mxCell>
        <mxCell id="V1msDHGJHPTng66Zl8Yn-8" value="Punto inicio" style="text;strokeColor=none;fillColor=none;spacingLeft=4;spacingRight=4;overflow=hidden;rotatable=0;points=[[0,0.5],[1,0.5]];portConstraint=eastwest;fontSize=12;whiteSpace=wrap;html=1;" parent="V1msDHGJHPTng66Zl8Yn-6" vertex="1">
          <mxGeometry y="56" width="160" height="30" as="geometry" />
        </mxCell>
        <mxCell id="V1msDHGJHPTng66Zl8Yn-9" value="Horario inicio&lt;br&gt;&lt;br&gt;Destino Final&lt;br&gt;&lt;br&gt;Distancia&lt;br&gt;&lt;br&gt;Duracion total&lt;br&gt;&lt;br&gt;Tarifa&lt;br&gt;&lt;br&gt;Calificacion&lt;br&gt;&lt;br&gt;ID_Pago(FK)&lt;br&gt;ID_Conductor(FK)" style="text;strokeColor=none;fillColor=none;spacingLeft=4;spacingRight=4;overflow=hidden;rotatable=0;points=[[0,0.5],[1,0.5]];portConstraint=eastwest;fontSize=12;whiteSpace=wrap;html=1;" parent="V1msDHGJHPTng66Zl8Yn-6" vertex="1">
          <mxGeometry y="86" width="160" height="214" as="geometry" />
        </mxCell>
        <mxCell id="V1msDHGJHPTng66Zl8Yn-10" value="Conductores" style="swimlane;fontStyle=0;childLayout=stackLayout;horizontal=1;startSize=26;horizontalStack=0;resizeParent=1;resizeParentMax=0;resizeLast=0;collapsible=1;marginBottom=0;align=center;fontSize=14;" parent="1" vertex="1">
          <mxGeometry x="-120" y="160" width="160" height="180" as="geometry" />
        </mxCell>
        <mxCell id="V1msDHGJHPTng66Zl8Yn-11" value="&lt;u&gt;ID_Conductor(PK)&lt;/u&gt;" style="text;strokeColor=none;fillColor=none;spacingLeft=4;spacingRight=4;overflow=hidden;rotatable=0;points=[[0,0.5],[1,0.5]];portConstraint=eastwest;fontSize=12;whiteSpace=wrap;html=1;" parent="V1msDHGJHPTng66Zl8Yn-10" vertex="1">
          <mxGeometry y="26" width="160" height="30" as="geometry" />
        </mxCell>
        <mxCell id="V1msDHGJHPTng66Zl8Yn-12" value="Patente auto" style="text;strokeColor=none;fillColor=none;spacingLeft=4;spacingRight=4;overflow=hidden;rotatable=0;points=[[0,0.5],[1,0.5]];portConstraint=eastwest;fontSize=12;whiteSpace=wrap;html=1;" parent="V1msDHGJHPTng66Zl8Yn-10" vertex="1">
          <mxGeometry y="56" width="160" height="30" as="geometry" />
        </mxCell>
        <mxCell id="V1msDHGJHPTng66Zl8Yn-13" value="Model auto&lt;br&gt;&lt;br&gt;Color auto&lt;br&gt;&lt;br&gt;Puntaje" style="text;strokeColor=none;fillColor=none;spacingLeft=4;spacingRight=4;overflow=hidden;rotatable=0;points=[[0,0.5],[1,0.5]];portConstraint=eastwest;fontSize=12;whiteSpace=wrap;html=1;" parent="V1msDHGJHPTng66Zl8Yn-10" vertex="1">
          <mxGeometry y="86" width="160" height="94" as="geometry" />
        </mxCell>
        <mxCell id="V1msDHGJHPTng66Zl8Yn-14" value="Forma de pago" style="swimlane;fontStyle=0;childLayout=stackLayout;horizontal=1;startSize=26;horizontalStack=0;resizeParent=1;resizeParentMax=0;resizeLast=0;collapsible=1;marginBottom=0;align=center;fontSize=14;" parent="1" vertex="1">
          <mxGeometry x="200" y="550" width="160" height="116" as="geometry" />
        </mxCell>
        <mxCell id="V1msDHGJHPTng66Zl8Yn-15" value="&lt;u&gt;ID_Pago(PK)&lt;/u&gt;" style="text;strokeColor=none;fillColor=none;spacingLeft=4;spacingRight=4;overflow=hidden;rotatable=0;points=[[0,0.5],[1,0.5]];portConstraint=eastwest;fontSize=12;whiteSpace=wrap;html=1;" parent="V1msDHGJHPTng66Zl8Yn-14" vertex="1">
          <mxGeometry y="26" width="160" height="30" as="geometry" />
        </mxCell>
        <mxCell id="V1msDHGJHPTng66Zl8Yn-16" value="Efectivo" style="text;strokeColor=none;fillColor=none;spacingLeft=4;spacingRight=4;overflow=hidden;rotatable=0;points=[[0,0.5],[1,0.5]];portConstraint=eastwest;fontSize=12;whiteSpace=wrap;html=1;" parent="V1msDHGJHPTng66Zl8Yn-14" vertex="1">
          <mxGeometry y="56" width="160" height="30" as="geometry" />
        </mxCell>
        <mxCell id="V1msDHGJHPTng66Zl8Yn-17" value="Tarjeta" style="text;strokeColor=none;fillColor=none;spacingLeft=4;spacingRight=4;overflow=hidden;rotatable=0;points=[[0,0.5],[1,0.5]];portConstraint=eastwest;fontSize=12;whiteSpace=wrap;html=1;" parent="V1msDHGJHPTng66Zl8Yn-14" vertex="1">
          <mxGeometry y="86" width="160" height="30" as="geometry" />
        </mxCell>
        <mxCell id="V1msDHGJHPTng66Zl8Yn-18" value="" style="endArrow=classic;html=1;rounded=0;entryX=-0.025;entryY=-0.028;entryDx=0;entryDy=0;entryPerimeter=0;" parent="1" target="V1msDHGJHPTng66Zl8Yn-9" edge="1">
          <mxGeometry width="50" height="50" relative="1" as="geometry">
            <mxPoint x="40" y="240" as="sourcePoint" />
            <mxPoint x="320" y="370" as="targetPoint" />
            <Array as="points">
              <mxPoint x="40" y="240" />
            </Array>
          </mxGeometry>
        </mxCell>
        <mxCell id="V1msDHGJHPTng66Zl8Yn-19" value="" style="endArrow=classic;html=1;rounded=0;entryX=1.019;entryY=0.079;entryDx=0;entryDy=0;entryPerimeter=0;" parent="1" target="V1msDHGJHPTng66Zl8Yn-9" edge="1">
          <mxGeometry width="50" height="50" relative="1" as="geometry">
            <mxPoint x="620" y="263" as="sourcePoint" />
            <mxPoint x="320" y="370" as="targetPoint" />
          </mxGeometry>
        </mxCell>
        <mxCell id="V1msDHGJHPTng66Zl8Yn-20" value="" style="endArrow=classic;html=1;rounded=0;exitX=0.363;exitY=1.019;exitDx=0;exitDy=0;exitPerimeter=0;entryX=0.544;entryY=-0.034;entryDx=0;entryDy=0;entryPerimeter=0;" parent="1" source="V1msDHGJHPTng66Zl8Yn-9" target="V1msDHGJHPTng66Zl8Yn-14" edge="1">
          <mxGeometry width="50" height="50" relative="1" as="geometry">
            <mxPoint x="270" y="420" as="sourcePoint" />
            <mxPoint x="320" y="370" as="targetPoint" />
          </mxGeometry>
        </mxCell>
        <mxCell id="eQkxuuWjDLQ-LOcWaVL9-1" value="&lt;b&gt;&lt;font style=&quot;font-size: 16px;&quot;&gt;N&lt;/font&gt;&lt;/b&gt;" style="text;strokeColor=none;fillColor=none;spacingLeft=4;spacingRight=4;overflow=hidden;rotatable=0;points=[[0,0.5],[1,0.5]];portConstraint=eastwest;fontSize=12;whiteSpace=wrap;html=1;" vertex="1" parent="1">
          <mxGeometry x="200" y="120" width="40" height="30" as="geometry" />
        </mxCell>
        <mxCell id="eQkxuuWjDLQ-LOcWaVL9-2" value="&lt;span style=&quot;font-size: 14px;&quot;&gt;&lt;b&gt;1&lt;/b&gt;&lt;/span&gt;" style="text;strokeColor=none;fillColor=none;spacingLeft=4;spacingRight=4;overflow=hidden;rotatable=0;points=[[0,0.5],[1,0.5]];portConstraint=eastwest;fontSize=12;whiteSpace=wrap;html=1;" vertex="1" parent="1">
          <mxGeometry x="40" y="190" width="40" height="30" as="geometry" />
        </mxCell>
        <mxCell id="eQkxuuWjDLQ-LOcWaVL9-3" value="N" style="text;strokeColor=none;fillColor=none;spacingLeft=4;spacingRight=4;overflow=hidden;rotatable=0;points=[[0,0.5],[1,0.5]];portConstraint=eastwest;fontSize=12;whiteSpace=wrap;html=1;" vertex="1" parent="1">
          <mxGeometry x="420" y="140" width="40" height="30" as="geometry" />
        </mxCell>
        <mxCell id="eQkxuuWjDLQ-LOcWaVL9-4" value="&lt;b&gt;&lt;font style=&quot;font-size: 16px;&quot;&gt;N&lt;/font&gt;&lt;/b&gt;" style="text;html=1;align=center;verticalAlign=middle;resizable=0;points=[];autosize=1;strokeColor=none;fillColor=none;" vertex="1" parent="1">
          <mxGeometry x="410" y="138" width="40" height="30" as="geometry" />
        </mxCell>
        <mxCell id="eQkxuuWjDLQ-LOcWaVL9-5" value="&lt;b&gt;&lt;font style=&quot;font-size: 16px;&quot;&gt;1&lt;/font&gt;&lt;/b&gt;" style="text;strokeColor=none;fillColor=none;spacingLeft=4;spacingRight=4;overflow=hidden;rotatable=0;points=[[0,0.5],[1,0.5]];portConstraint=eastwest;fontSize=12;whiteSpace=wrap;html=1;" vertex="1" parent="1">
          <mxGeometry x="580" y="205" width="40" height="30" as="geometry" />
        </mxCell>
        <mxCell id="eQkxuuWjDLQ-LOcWaVL9-6" value="&lt;b&gt;&lt;font style=&quot;font-size: 16px;&quot;&gt;1&lt;/font&gt;&lt;/b&gt;" style="text;strokeColor=none;fillColor=none;spacingLeft=4;spacingRight=4;overflow=hidden;rotatable=0;points=[[0,0.5],[1,0.5]];portConstraint=eastwest;fontSize=12;whiteSpace=wrap;html=1;" vertex="1" parent="1">
          <mxGeometry x="250" y="380" width="40" height="30" as="geometry" />
        </mxCell>
        <mxCell id="eQkxuuWjDLQ-LOcWaVL9-7" value="&lt;b&gt;&lt;font style=&quot;font-size: 16px;&quot;&gt;1&lt;/font&gt;&lt;/b&gt;" style="text;strokeColor=none;fillColor=none;spacingLeft=4;spacingRight=4;overflow=hidden;rotatable=0;points=[[0,0.5],[1,0.5]];portConstraint=eastwest;fontSize=12;whiteSpace=wrap;html=1;" vertex="1" parent="1">
          <mxGeometry x="240" y="510" width="40" height="30" as="geometry" />
        </mxCell>
        <mxCell id="eQkxuuWjDLQ-LOcWaVL9-12" value="Calificacion" style="swimlane;fontStyle=0;childLayout=stackLayout;horizontal=1;startSize=26;horizontalStack=0;resizeParent=1;resizeParentMax=0;resizeLast=0;collapsible=1;marginBottom=0;align=center;fontSize=14;" vertex="1" parent="1">
          <mxGeometry x="250" y="-116" width="160" height="150" as="geometry" />
        </mxCell>
        <mxCell id="eQkxuuWjDLQ-LOcWaVL9-13" value="&lt;u&gt;ID_calificacion(PK)&lt;/u&gt;" style="text;strokeColor=none;fillColor=none;spacingLeft=4;spacingRight=4;overflow=hidden;rotatable=0;points=[[0,0.5],[1,0.5]];portConstraint=eastwest;fontSize=12;whiteSpace=wrap;html=1;" vertex="1" parent="eQkxuuWjDLQ-LOcWaVL9-12">
          <mxGeometry y="26" width="160" height="30" as="geometry" />
        </mxCell>
        <mxCell id="eQkxuuWjDLQ-LOcWaVL9-14" value="ID_cliente(FK)" style="text;strokeColor=none;fillColor=none;spacingLeft=4;spacingRight=4;overflow=hidden;rotatable=0;points=[[0,0.5],[1,0.5]];portConstraint=eastwest;fontSize=12;whiteSpace=wrap;html=1;" vertex="1" parent="eQkxuuWjDLQ-LOcWaVL9-12">
          <mxGeometry y="56" width="160" height="30" as="geometry" />
        </mxCell>
        <mxCell id="eQkxuuWjDLQ-LOcWaVL9-15" value="ID_conductor(FK)&lt;br&gt;&lt;br&gt;Calificacion" style="text;strokeColor=none;fillColor=none;spacingLeft=4;spacingRight=4;overflow=hidden;rotatable=0;points=[[0,0.5],[1,0.5]];portConstraint=eastwest;fontSize=12;whiteSpace=wrap;html=1;" vertex="1" parent="eQkxuuWjDLQ-LOcWaVL9-12">
          <mxGeometry y="86" width="160" height="64" as="geometry" />
        </mxCell>
        <mxCell id="eQkxuuWjDLQ-LOcWaVL9-16" value="" style="edgeStyle=entityRelationEdgeStyle;fontSize=12;html=1;endArrow=ERoneToMany;startArrow=ERoneToMany;rounded=0;" edge="1" parent="1">
          <mxGeometry width="100" height="100" relative="1" as="geometry">
            <mxPoint x="50" y="170" as="sourcePoint" />
            <mxPoint x="240" y="-50" as="targetPoint" />
          </mxGeometry>
        </mxCell>
        <mxCell id="eQkxuuWjDLQ-LOcWaVL9-17" value="" style="edgeStyle=entityRelationEdgeStyle;fontSize=12;html=1;endArrow=ERoneToMany;startArrow=ERoneToMany;rounded=0;exitX=1.019;exitY=0.233;exitDx=0;exitDy=0;exitPerimeter=0;" edge="1" parent="1" source="eQkxuuWjDLQ-LOcWaVL9-13">
          <mxGeometry width="100" height="100" relative="1" as="geometry">
            <mxPoint x="60" y="180" as="sourcePoint" />
            <mxPoint x="620" y="190" as="targetPoint" />
          </mxGeometry>
        </mxCell>
        <mxCell id="eQkxuuWjDLQ-LOcWaVL9-20" value="&lt;b&gt;&lt;font style=&quot;font-size: 16px;&quot;&gt;N&lt;/font&gt;&lt;/b&gt;" style="text;strokeColor=none;fillColor=none;spacingLeft=4;spacingRight=4;overflow=hidden;rotatable=0;points=[[0,0.5],[1,0.5]];portConstraint=eastwest;fontSize=12;whiteSpace=wrap;html=1;" vertex="1" parent="1">
          <mxGeometry x="200" y="-90" width="40" height="30" as="geometry" />
        </mxCell>
        <mxCell id="eQkxuuWjDLQ-LOcWaVL9-21" value="&lt;b&gt;&lt;font style=&quot;font-size: 16px;&quot;&gt;N&lt;/font&gt;&lt;/b&gt;" style="text;strokeColor=none;fillColor=none;spacingLeft=4;spacingRight=4;overflow=hidden;rotatable=0;points=[[0,0.5],[1,0.5]];portConstraint=eastwest;fontSize=12;whiteSpace=wrap;html=1;" vertex="1" parent="1">
          <mxGeometry x="30" y="120" width="40" height="30" as="geometry" />
        </mxCell>
        <mxCell id="eQkxuuWjDLQ-LOcWaVL9-22" value="&lt;b&gt;&lt;font style=&quot;font-size: 16px;&quot;&gt;N&lt;/font&gt;&lt;/b&gt;" style="text;strokeColor=none;fillColor=none;spacingLeft=4;spacingRight=4;overflow=hidden;rotatable=0;points=[[0,0.5],[1,0.5]];portConstraint=eastwest;fontSize=12;whiteSpace=wrap;html=1;" vertex="1" parent="1">
          <mxGeometry x="440" y="-116" width="40" height="30" as="geometry" />
        </mxCell>
        <mxCell id="eQkxuuWjDLQ-LOcWaVL9-23" value="&lt;b&gt;&lt;font style=&quot;font-size: 16px;&quot;&gt;N&lt;/font&gt;&lt;/b&gt;" style="text;strokeColor=none;fillColor=none;spacingLeft=4;spacingRight=4;overflow=hidden;rotatable=0;points=[[0,0.5],[1,0.5]];portConstraint=eastwest;fontSize=12;whiteSpace=wrap;html=1;" vertex="1" parent="1">
          <mxGeometry x="600" y="140" width="40" height="30" as="geometry" />
        </mxCell>
      </root>
    </mxGraphModel>
  </diagram>
</mxfile>
